{"scene":0,"asset":{"generator":"ImageToStl.com","version":"2.0"},"scenes":[{"name":"Scene","nodes":[0]}],"nodes":[{"name":"Node0","children":[1,2]},{"name":"Node1","mesh":0},{"name":"Node2","mesh":1}],"materials":[{"name":"x1","pbrMetallicRoughness":{"baseColorFactor":[0.85,0.85,0.85,1.0],"metallicFactor":0.05,"roughnessFactor":0.5},"doubleSided":true}],"meshes":[{"name":"Mesh0","primitives":[{"indices":2,"material":0,"attributes":{"POSITION":0,"NORMAL":1}}]},{"name":"Mesh0","primitives":[{"indices":5,"material":0,"attributes":{"POSITION":3,"NORMAL":4}}]}],"accessors":[{"bufferView":0,"componentType":5126,"count":5642,"type":"VEC3","min":[-1.406075,-1.7575938,-0.19685],"max":[1.4412268,1.7927456,-0.06561667]},{"bufferView":1,"componentType":5126,"count":5642,"type":"VEC3"},{"bufferView":2,"componentType":5123,"count":9744,"type":"SCALAR"},{"bufferView":3,"componentType":5126,"count":1117,"type":"VEC3","min":[-1.406075,-1.7575938,-0.19685],"max":[1.4412268,1.7927456,-0.19685]},{"bufferView":4,"componentType":5126,"count":1117,"type":"VEC3"},{"bufferView":5,"componentType":5123,"count":5652,"type":"SCALAR"}],"bufferViews":[{"target":34962,"buffer":0,"byteLength":67704,"byteOffset":0},{"target":34962,"buffer":0,"byteLength":67704,"byteOffset":67704},{"target":34963,"buffer":0,"byteLength":19488,"byteOffset":135408},{"target":34962,"buffer":0,"byteLength":13404,"byteOffset":154896},{"target":34962,"buffer":0,"byteLength":13404,"byteOffset":168300},{"target":34963,"buffer":0,"byteLength":11304,"byteOffset":181704}],"buffers":[{"byteLength":193008,"uri":"data:application/octet-stream;base64,"}]}